<?xml version="1.0" encoding="UTF-8" standalone="no"?>
<!DOCTYPE svg PUBLIC "-//W3C//DTD SVG 1.1//EN" "http://www.w3.org/Graphics/SVG/1.1/DTD/svg11.dtd">
<svg width="100%" height="100%" viewBox="0 0 2000 441" version="1.1" xmlns="http://www.w3.org/2000/svg" xmlns:xlink="http://www.w3.org/1999/xlink" xml:space="preserve" xmlns:serif="http://www.serif.com/" style="fill-rule:evenodd;clip-rule:evenodd;stroke-linejoin:round;stroke-miterlimit:2;">
    <g id="text">
        <path d="M127.256,97.593C120.137,119.939 113.117,144.659 106.195,171.751C101.449,152.569 94.231,127.849 84.541,97.593L53.691,4.746L-0,4.746L76.235,215.95L135.562,215.95L209.424,4.746L157.81,4.746L127.256,97.593Z" style="fill:white;fill-rule:nonzero;"/>
        <path d="M397.787,215.95L318.289,4.746L258.665,4.746L180.947,215.95L232.265,215.95L244.427,179.167L332.231,179.167L344.689,215.95L397.787,215.95ZM270.531,101.152C271.717,97.791 277.551,79.992 288.032,47.758C296.14,72.675 302.073,90.474 305.83,101.152L317.992,137.342L258.369,137.342L270.531,101.152Z" style="fill:white;fill-rule:nonzero;"/>
        <path d="M554.41,103.525C573.197,94.626 582.59,79.696 582.59,58.734C582.59,42.518 576.608,29.466 564.644,19.578C552.68,9.69 535.03,4.746 511.695,4.746L411.432,4.746L411.432,215.95L514.661,215.95C539.776,215.95 558.81,210.561 571.763,199.783C584.716,189.006 591.193,173.927 591.193,154.547C591.193,143.472 587.93,133.238 581.404,123.845C574.878,114.451 565.88,107.678 554.41,103.525ZM508.432,44.792C516.144,44.792 522.126,46.769 526.378,50.724C530.63,54.68 532.756,60.019 532.756,66.743C532.756,73.862 530.63,79.498 526.378,83.651C522.126,87.804 516.144,89.88 508.432,89.88L461.563,89.88L461.563,44.792L508.432,44.792ZM461.563,175.904L461.563,127.849L511.695,127.849C530.284,127.849 539.578,135.859 539.578,151.877C539.578,159.589 537.156,165.522 532.311,169.675C527.466,173.828 520.594,175.904 511.695,175.904L461.563,175.904Z" style="fill:white;fill-rule:nonzero;"/>
        <path d="M808.626,215.95L729.128,4.746L669.504,4.746L591.786,215.95L643.104,215.95L655.266,179.167L743.069,179.167L755.528,215.95L808.626,215.95ZM681.369,101.152C682.556,97.791 688.39,79.992 698.871,47.758C706.979,72.675 712.912,90.474 716.669,101.152L728.831,137.342L669.207,137.342L681.369,101.152Z" style="fill:white;fill-rule:nonzero;"/>
        <path d="M959.613,48.945C959.613,86.914 960.008,119.643 960.799,147.131C953.68,132.892 942.704,113.512 927.873,88.99L876.258,4.746L822.271,4.746L822.271,215.95L870.029,215.95L870.029,171.751C870.029,133.782 869.633,101.251 868.842,74.159C874.973,86.222 885.948,105.404 901.769,131.706L953.383,215.95L1007.37,215.95L1007.37,4.746L959.613,4.746L959.613,48.945Z" style="fill:white;fill-rule:nonzero;"/>
        <path d="M1039.41,4.746L1039.41,215.95L1126.03,215.95C1160.83,215.95 1187.53,206.606 1206.12,187.918C1224.71,169.23 1234,143.373 1234,110.348C1234,77.323 1224.71,51.466 1206.12,32.778C1187.53,14.09 1160.83,4.746 1126.03,4.746L1039.41,4.746ZM1089.54,173.531L1089.54,47.165L1125.14,47.165C1143.33,47.165 1157.32,52.455 1167.11,63.035C1176.9,73.615 1181.8,89.386 1181.8,110.348C1181.8,131.31 1176.9,147.081 1167.11,157.661C1157.32,168.241 1143.33,173.531 1125.14,173.531L1089.54,173.531Z" style="fill:white;fill-rule:nonzero;"/>
        <path d="M1345.83,220.696C1374.5,220.696 1397,213.28 1413.31,198.448C1429.63,183.617 1437.79,162.655 1437.79,135.562L1437.79,4.746L1387.65,4.746L1387.65,136.155C1387.65,149.603 1384,159.837 1376.68,166.857C1369.36,173.877 1359.08,177.387 1345.83,177.387C1332.58,177.387 1322.35,173.877 1315.13,166.857C1307.91,159.837 1304.3,149.603 1304.3,136.155L1304.3,4.746L1254.17,4.746L1254.17,135.562C1254.17,163.05 1262.57,184.012 1279.38,198.448C1296.19,213.28 1318.34,220.696 1345.83,220.696Z" style="fill:white;fill-rule:nonzero;"/>
        <path d="M1549.03,220.696C1577.11,220.696 1599.06,214.961 1614.88,203.491C1630.7,192.021 1638.61,175.509 1638.61,153.953C1638.61,135.957 1632.83,121.867 1621.26,111.683C1609.69,101.498 1591.15,94.132 1565.64,89.584L1547.84,86.321C1534.4,83.75 1525.05,80.586 1519.81,76.828C1514.57,73.071 1511.95,67.633 1511.95,60.513C1511.95,46.275 1522.73,39.156 1544.28,39.156C1557.73,39.156 1567.57,41.529 1573.8,46.275C1580.03,51.021 1583.44,58.536 1584.03,68.819L1631.5,68.819C1630.51,46.67 1622.6,29.663 1607.76,17.798C1592.93,5.933 1571.48,-0 1543.39,-0C1517.09,-0 1496.77,5.636 1482.44,16.908C1468.1,28.18 1460.93,43.408 1460.93,62.59C1460.93,98.779 1484.46,120.829 1531.53,128.739L1548.73,132.002C1563.57,134.771 1573.6,137.886 1578.84,141.346C1584.08,144.807 1586.7,150.097 1586.7,157.216C1586.7,173.432 1574.74,181.54 1550.81,181.54C1535.38,181.54 1523.96,178.969 1516.55,173.828C1509.13,168.686 1505.33,159.589 1505.13,146.537L1456.48,146.537C1456.68,169.873 1464.79,188.066 1480.8,201.118C1496.82,214.17 1519.57,220.696 1549.03,220.696Z" style="fill:white;fill-rule:nonzero;"/>
        <path d="M1639.2,4.746L1639.2,49.538L1703.87,49.538L1703.87,215.95L1754.29,215.95L1754.29,49.538L1819.26,49.538L1819.26,4.746L1639.2,4.746Z" style="fill:white;fill-rule:nonzero;"/>
        <path d="M1999.32,4.746L1837.95,4.746L1837.95,215.95L1999.02,215.95L1999.02,171.158L1888.08,171.158L1888.08,129.926L1989.23,129.926L1989.23,87.804L1888.08,87.804L1888.08,49.538L1999.32,49.538L1999.32,4.746Z" style="fill:white;fill-rule:nonzero;"/>
        <path d="M252.618,396.757L280.488,396.757C279.989,404.449 276.892,410.692 271.198,415.487C265.504,420.282 258.661,422.68 250.67,422.68C240.581,422.68 232.639,419.283 226.845,412.49C221.051,405.698 218.154,396.407 218.154,384.62C218.154,372.832 221.001,363.542 226.695,356.749C232.389,349.956 240.131,346.56 249.921,346.56C257.213,346.56 263.381,348.358 268.426,351.954C273.471,355.551 276.742,360.495 278.241,366.789L299.069,366.789C297.271,355.101 291.976,345.861 283.186,339.068C274.295,332.275 263.157,328.879 249.771,328.879C233.588,328.879 220.751,333.923 211.261,344.013C201.771,354.302 197.026,367.838 197.026,384.62C197.026,401.402 201.672,414.888 210.962,425.077C220.252,435.266 232.589,440.361 247.973,440.361C263.456,440.361 275.044,434.867 282.736,423.878L285.583,437.964L300.268,437.964L300.268,380.424L252.618,380.424L252.618,396.757Z" style="fill:white;fill-rule:nonzero;"/>
        <path d="M466.742,331.276L388.075,331.276L388.075,437.964L466.442,437.964L466.442,419.833L408.304,419.833L408.304,391.962L461.198,391.962L461.198,374.58L408.304,374.58L408.304,349.407L466.742,349.407L466.742,331.276Z" style="fill:white;fill-rule:nonzero;"/>
        <path d="M621.679,359.147C621.679,378.726 621.878,395.958 622.278,410.842C618.582,403.85 612.288,393.161 603.398,378.776L573.579,331.276L551.103,331.276L551.103,437.964L570.582,437.964L570.582,410.093C570.582,386.818 570.383,369.586 569.983,358.398C574.578,367.088 580.922,377.777 589.013,390.464L618.682,437.964L641.158,437.964L641.158,331.276L621.679,331.276L621.679,359.147Z" style="fill:white;fill-rule:nonzero;"/>
        <path d="M809.281,331.276L730.614,331.276L730.614,437.964L808.981,437.964L808.981,419.833L750.842,419.833L750.842,391.962L803.737,391.962L803.737,374.58L750.842,374.58L750.842,349.407L809.281,349.407L809.281,331.276Z" style="fill:white;fill-rule:nonzero;"/>
        <path d="M977.254,409.643C977.054,403.45 975.78,398.53 973.433,394.884C971.085,391.238 967.214,388.566 961.82,386.868C973.707,382.672 979.651,374.181 979.651,361.394C979.651,352.104 976.355,344.762 969.761,339.368C963.168,333.973 953.928,331.276 942.041,331.276L893.642,331.276L893.642,437.964L913.87,437.964L913.87,396.158L940.243,396.158C946.037,396.158 950.257,397.431 952.904,399.979C955.551,402.526 957.025,407.046 957.325,413.539L957.774,425.227C957.874,430.721 958.823,434.967 960.621,437.964L981.449,437.964C979.351,434.767 978.253,430.621 978.153,425.527L977.254,409.643ZM913.87,347.909L940.093,347.909C946.086,347.909 950.707,349.257 953.953,351.954C957.2,354.651 958.823,358.547 958.823,363.642C958.823,369.036 957.25,373.157 954.103,376.004C950.956,378.851 946.536,380.274 940.842,380.274L913.87,380.274L913.87,347.909Z" style="fill:white;fill-rule:nonzero;"/>
        <path d="M1160.66,437.964L1119.3,331.276L1095.63,331.276L1055.02,437.964L1075.85,437.964L1084.09,414.438L1130.84,414.438L1139.23,437.964L1160.66,437.964ZM1094.28,385.669C1098.78,373.681 1103.12,361.494 1107.32,349.107C1112.61,364.591 1117.01,376.778 1120.5,385.669L1124.7,397.207L1090.23,397.207L1094.28,385.669Z" style="fill:white;fill-rule:nonzero;"/>
        <path d="M1338.07,437.964L1296.71,331.276L1273.04,331.276L1232.43,437.964L1253.26,437.964L1261.5,414.438L1308.25,414.438L1316.64,437.964L1338.07,437.964ZM1271.69,385.669C1276.18,373.681 1280.53,361.494 1284.73,349.107C1290.02,364.591 1294.42,376.778 1297.91,385.669L1302.11,397.207L1267.64,397.207L1271.69,385.669Z" style="fill:white;fill-rule:nonzero;"/>
        <path d="M1395.31,331.276L1395.31,349.407L1429.47,349.407L1429.47,437.964L1449.85,437.964L1449.85,349.407L1484.02,349.407L1484.02,331.276L1395.31,331.276Z" style="fill:white;fill-rule:nonzero;"/>
        <path d="M1608.09,440.361C1624.07,440.361 1636.96,435.266 1646.75,425.077C1656.44,414.988 1661.28,401.502 1661.28,384.62C1661.28,367.738 1656.44,354.252 1646.75,344.163C1636.96,333.973 1624.07,328.879 1608.09,328.879C1592.11,328.879 1579.22,333.973 1569.43,344.163C1559.64,354.452 1554.75,367.937 1554.75,384.62C1554.75,401.302 1559.64,414.788 1569.43,425.077C1579.22,435.266 1592.11,440.361 1608.09,440.361ZM1584.72,412.341C1578.82,405.548 1575.87,396.308 1575.87,384.62C1575.87,372.932 1578.82,363.692 1584.72,356.899C1590.61,350.106 1598.4,346.71 1608.09,346.71C1617.88,346.71 1625.72,350.106 1631.62,356.899C1637.41,363.592 1640.31,372.832 1640.31,384.62C1640.31,396.407 1637.41,405.648 1631.62,412.341C1625.72,419.133 1617.88,422.53 1608.09,422.53C1598.4,422.53 1590.61,419.133 1584.72,412.341Z" style="fill:white;fill-rule:nonzero;"/>
        <path d="M1829.85,409.643C1829.65,403.45 1828.38,398.53 1826.03,394.884C1823.68,391.238 1819.81,388.566 1814.42,386.868C1826.3,382.672 1832.25,374.181 1832.25,361.394C1832.25,352.104 1828.95,344.762 1822.36,339.368C1815.77,333.973 1806.53,331.276 1794.64,331.276L1746.24,331.276L1746.24,437.964L1766.47,437.964L1766.47,396.158L1792.84,396.158C1798.63,396.158 1802.85,397.431 1805.5,399.979C1808.15,402.526 1809.62,407.046 1809.92,413.539L1810.37,425.227C1810.47,430.721 1811.42,434.967 1813.22,437.964L1834.05,437.964C1831.95,434.767 1830.85,430.621 1830.75,425.527L1829.85,409.643ZM1766.47,347.909L1792.69,347.909C1798.68,347.909 1803.3,349.257 1806.55,351.954C1809.8,354.651 1811.42,358.547 1811.42,363.642C1811.42,369.036 1809.85,373.157 1806.7,376.004C1803.55,378.851 1799.13,380.274 1793.44,380.274L1766.47,380.274L1766.47,347.909Z" style="fill:white;fill-rule:nonzero;"/>
    </g>
</svg>
