<?xml version="1.0" encoding="UTF-8" standalone="no"?><!DOCTYPE svg PUBLIC "-//W3C//DTD SVG 1.1//EN" "http://www.w3.org/Graphics/SVG/1.1/DTD/svg11.dtd"><svg width="100%" height="100%" viewBox="0 0 2000 441" version="1.1" xmlns="http://www.w3.org/2000/svg" xmlns:xlink="http://www.w3.org/1999/xlink" xml:space="preserve" xmlns:serif="http://www.serif.com/" style="fill-rule:evenodd;clip-rule:evenodd;stroke-linejoin:round;stroke-miterlimit:2;"><g id="text"><path d="M127.256,97.593c-7.119,22.346 -14.139,47.066 -21.061,74.158c-4.746,-19.182 -11.964,-43.902 -21.654,-74.158l-30.85,-92.847l-53.691,0l76.235,211.204l59.327,-0l73.862,-211.204l-51.614,0l-30.554,92.847Z" style="fill-rule:nonzero;"/><path d="M397.787,215.95l-79.498,-211.204l-59.624,0l-77.718,211.204l51.318,-0l12.162,-36.783l87.804,0l12.458,36.783l53.098,-0Zm-127.256,-114.798c1.186,-3.361 7.02,-21.16 17.501,-53.394c8.108,24.917 14.041,42.716 17.798,53.394l12.162,36.19l-59.623,-0l12.162,-36.19Z" style="fill-rule:nonzero;"/><path d="M554.41,103.525c18.787,-8.899 28.18,-23.829 28.18,-44.791c0,-16.216 -5.982,-29.268 -17.946,-39.156c-11.964,-9.888 -29.614,-14.832 -52.949,-14.832l-100.263,0l0,211.204l103.229,-0c25.115,-0 44.149,-5.389 57.102,-16.167c12.953,-10.777 19.43,-25.856 19.43,-45.236c-0,-11.075 -3.263,-21.309 -9.789,-30.702c-6.526,-9.394 -15.524,-16.167 -26.994,-20.32Zm-45.978,-58.733c7.712,-0 13.694,1.977 17.946,5.932c4.252,3.956 6.378,9.295 6.378,16.019c-0,7.119 -2.126,12.755 -6.378,16.908c-4.252,4.153 -10.234,6.229 -17.946,6.229l-46.869,0l0,-45.088l46.869,-0Zm-46.869,131.112l0,-48.055l50.132,0c18.589,0 27.883,8.01 27.883,24.028c0,7.712 -2.422,13.645 -7.267,17.798c-4.845,4.153 -11.717,6.229 -20.616,6.229l-50.132,0Z" style="fill-rule:nonzero;"/><path d="M808.626,215.95l-79.498,-211.204l-59.624,0l-77.718,211.204l51.318,-0l12.162,-36.783l87.803,0l12.459,36.783l53.098,-0Zm-127.257,-114.798c1.187,-3.361 7.021,-21.16 17.502,-53.394c8.108,24.917 14.041,42.716 17.798,53.394l12.162,36.19l-59.624,-0l12.162,-36.19Z" style="fill-rule:nonzero;"/><path d="M959.613,48.945c-0,37.969 0.395,70.698 1.186,98.186c-7.119,-14.239 -18.095,-33.619 -32.926,-58.141l-51.615,-84.244l-53.987,0l-0,211.204l47.758,-0l-0,-44.199c-0,-37.969 -0.396,-70.5 -1.187,-97.592c6.131,12.063 17.106,31.245 32.927,57.547l51.614,84.244l53.988,-0l-0,-211.204l-47.758,0l-0,44.199Z" style="fill-rule:nonzero;"/><path d="M1039.41,4.746l0,211.204l86.618,-0c34.805,-0 61.502,-9.344 80.091,-28.032c18.589,-18.688 27.884,-44.545 27.884,-77.57c-0,-33.025 -9.295,-58.882 -27.884,-77.57c-18.589,-18.688 -45.286,-28.032 -80.091,-28.032l-86.618,0Zm50.132,168.785l-0,-126.366l35.596,-0c18.193,-0 32.184,5.29 41.973,15.87c9.789,10.58 14.684,26.351 14.684,47.313c-0,20.962 -4.895,36.733 -14.684,47.313c-9.789,10.58 -23.78,15.87 -41.973,15.87l-35.596,0Z" style="fill-rule:nonzero;"/><path d="M1345.83,220.696c28.674,0 51.169,-7.416 67.484,-22.248c16.315,-14.831 24.472,-35.793 24.472,-62.886l0,-130.816l-50.131,0l0,131.409c0,13.448 -3.658,23.682 -10.975,30.702c-7.317,7.02 -17.601,10.53 -30.85,10.53c-13.25,0 -23.484,-3.51 -30.702,-10.53c-7.218,-7.02 -10.827,-17.254 -10.827,-30.702l-0,-131.409l-50.131,0l-0,130.816c-0,27.488 8.404,48.45 25.214,62.886c16.809,14.832 38.958,22.248 66.446,22.248Z" style="fill-rule:nonzero;"/><path d="M1549.03,220.696c28.082,0 50.033,-5.735 65.853,-17.205c15.821,-11.47 23.731,-27.982 23.731,-49.538c-0,-17.996 -5.784,-32.086 -17.353,-42.27c-11.569,-10.185 -30.109,-17.551 -55.619,-22.099l-17.798,-3.263c-13.448,-2.571 -22.792,-5.735 -28.032,-9.493c-5.241,-3.757 -7.861,-9.195 -7.861,-16.315c0,-14.238 10.778,-21.357 32.333,-21.357c13.448,-0 23.286,2.373 29.515,7.119c6.23,4.746 9.641,12.261 10.234,22.544l47.462,0c-0.989,-22.149 -8.899,-39.156 -23.731,-51.021c-14.832,-11.865 -36.288,-17.798 -64.37,-17.798c-26.301,0 -46.621,5.636 -60.958,16.908c-14.337,11.272 -21.506,26.5 -21.506,45.682c-0,36.189 23.533,58.239 70.599,66.149l17.205,3.263c14.831,2.769 24.868,5.884 30.108,9.344c5.241,3.461 7.861,8.751 7.861,15.87c-0,16.216 -11.964,24.324 -35.893,24.324c-15.425,0 -26.845,-2.571 -34.261,-7.712c-7.416,-5.142 -11.223,-14.239 -11.421,-27.291l-48.648,0c0.198,23.336 8.306,41.529 24.324,54.581c16.019,13.052 38.761,19.578 68.226,19.578Z" style="fill-rule:nonzero;"/><path d="M1639.2,4.746l0,44.792l64.667,-0l-0,166.412l50.427,-0l0,-166.412l64.963,-0l0,-44.792l-180.057,0Z" style="fill-rule:nonzero;"/><path d="M1999.32,4.746l-161.37,0l0,211.204l161.073,-0l-0,-44.792l-110.941,0l-0,-41.232l101.152,-0l-0,-42.122l-101.152,-0l-0,-38.266l111.238,-0l-0,-44.792Z" style="fill-rule:nonzero;"/><path d="M252.618,396.757l27.87,0c-0.499,7.692 -3.596,13.935 -9.29,18.73c-5.694,4.795 -12.537,7.193 -20.528,7.193c-10.089,-0 -18.031,-3.397 -23.825,-10.19c-5.794,-6.792 -8.691,-16.083 -8.691,-27.87c0,-11.788 2.847,-21.078 8.541,-27.871c5.694,-6.793 13.436,-10.189 23.226,-10.189c7.292,0 13.46,1.798 18.505,5.394c5.045,3.597 8.316,8.541 9.815,14.835l20.828,-0c-1.798,-11.688 -7.093,-20.928 -15.883,-27.721c-8.891,-6.793 -20.029,-10.189 -33.415,-10.189c-16.183,-0 -29.02,5.044 -38.51,15.134c-9.49,10.289 -14.235,23.825 -14.235,40.607c0,16.782 4.646,30.268 13.936,40.457c9.29,10.189 21.627,15.284 37.011,15.284c15.483,0 27.071,-5.494 34.763,-16.483l2.847,14.086l14.685,-0l-0,-57.54l-47.65,0l-0,16.333Z" style="fill-rule:nonzero;"/><path d="M466.742,331.276l-78.667,0l-0,106.688l78.367,-0l0,-18.131l-58.138,-0l-0,-27.871l52.894,0l-0,-17.382l-52.894,0l-0,-25.173l58.438,0l0,-18.131Z" style="fill-rule:nonzero;"/><path d="M621.679,359.147c-0,19.579 0.199,36.811 0.599,51.695c-3.696,-6.992 -9.99,-17.681 -18.88,-32.066l-29.819,-47.5l-22.476,0l0,106.688l19.479,-0l0,-27.871c0,-23.275 -0.199,-40.507 -0.599,-51.695c4.595,8.69 10.939,19.379 19.03,32.066l29.669,47.5l22.476,-0l0,-106.688l-19.479,0l-0,27.871Z" style="fill-rule:nonzero;"/><path d="M809.281,331.276l-78.667,0l-0,106.688l78.367,-0l0,-18.131l-58.139,-0l0,-27.871l52.895,0l-0,-17.382l-52.895,0l0,-25.173l58.439,0l-0,-18.131Z" style="fill-rule:nonzero;"/><path d="M977.254,409.643c-0.2,-6.193 -1.474,-11.113 -3.821,-14.759c-2.348,-3.646 -6.219,-6.318 -11.613,-8.016c11.887,-4.196 17.831,-12.687 17.831,-25.474c0,-9.29 -3.296,-16.632 -9.89,-22.026c-6.593,-5.395 -15.833,-8.092 -27.72,-8.092l-48.399,0l-0,106.688l20.228,-0l0,-41.806l26.373,-0c5.794,-0 10.014,1.273 12.661,3.821c2.647,2.547 4.121,7.067 4.421,13.56l0.449,11.688c0.1,5.494 1.049,9.74 2.847,12.737l20.828,-0c-2.098,-3.197 -3.196,-7.343 -3.296,-12.437l-0.899,-15.884Zm-63.384,-61.734l26.223,-0c5.993,-0 10.614,1.348 13.86,4.045c3.247,2.697 4.87,6.593 4.87,11.688c0,5.394 -1.573,9.515 -4.72,12.362c-3.147,2.847 -7.567,4.27 -13.261,4.27l-26.972,0l0,-32.365Z" style="fill-rule:nonzero;"/><path d="M1160.66,437.964l-41.356,-106.688l-23.675,0l-40.607,106.688l20.828,-0l8.241,-23.526l46.751,0l8.391,23.526l21.427,-0Zm-66.38,-52.295c4.495,-11.988 8.841,-24.175 13.036,-36.562c5.295,15.484 9.69,27.671 13.187,36.562l4.195,11.538l-34.464,-0l4.046,-11.538Z" style="fill-rule:nonzero;"/><path d="M1338.07,437.964l-41.356,-106.688l-23.675,0l-40.608,106.688l20.828,-0l8.242,-23.526l46.75,0l8.392,23.526l21.427,-0Zm-66.38,-52.295c4.495,-11.988 8.841,-24.175 13.036,-36.562c5.295,15.484 9.69,27.671 13.186,36.562l4.196,11.538l-34.464,-0l4.046,-11.538Z" style="fill-rule:nonzero;"/><path d="M1395.31,331.276l-0,18.131l34.164,0l-0,88.557l20.378,-0l0,-88.557l34.164,0l0,-18.131l-88.706,0Z" style="fill-rule:nonzero;"/><path d="M1608.09,440.361c15.983,0 28.87,-5.095 38.659,-15.284c9.69,-10.089 14.535,-23.575 14.535,-40.457c0,-16.882 -4.845,-30.368 -14.535,-40.457c-9.789,-10.19 -22.676,-15.284 -38.659,-15.284c-15.983,-0 -28.869,5.094 -38.659,15.284c-9.79,10.289 -14.684,23.774 -14.684,40.457c-0,16.682 4.894,30.168 14.684,40.457c9.79,10.189 22.676,15.284 38.659,15.284Zm-23.375,-28.02c-5.894,-6.793 -8.841,-16.033 -8.841,-27.721c0,-11.688 2.947,-20.928 8.841,-27.721c5.894,-6.793 13.685,-10.189 23.375,-10.189c9.79,-0 17.632,3.396 23.525,10.189c5.794,6.693 8.691,15.933 8.691,27.721c0,11.787 -2.897,21.028 -8.691,27.721c-5.893,6.792 -13.735,10.189 -23.525,10.189c-9.69,-0 -17.481,-3.397 -23.375,-10.189Z" style="fill-rule:nonzero;"/><path d="M1829.85,409.643c-0.199,-6.193 -1.473,-11.113 -3.821,-14.759c-2.347,-3.646 -6.218,-6.318 -11.612,-8.016c11.887,-4.196 17.831,-12.687 17.831,-25.474c-0,-9.29 -3.297,-16.632 -9.89,-22.026c-6.593,-5.395 -15.833,-8.092 -27.72,-8.092l-48.399,0l-0,106.688l20.228,-0l0,-41.806l26.372,-0c5.794,-0 10.015,1.273 12.662,3.821c2.647,2.547 4.121,7.067 4.42,13.56l0.45,11.688c0.1,5.494 1.049,9.74 2.847,12.737l20.828,-0c-2.098,-3.197 -3.197,-7.343 -3.297,-12.437l-0.899,-15.884Zm-63.383,-61.734l26.223,-0c5.993,-0 10.613,1.348 13.86,4.045c3.247,2.697 4.87,6.593 4.87,11.688c-0,5.394 -1.574,9.515 -4.72,12.362c-3.147,2.847 -7.567,4.27 -13.261,4.27l-26.972,0l0,-32.365Z" style="fill-rule:nonzero;"/></g></svg>
