<?xml version="1.0" encoding="UTF-8" standalone="no"?><!DOCTYPE svg PUBLIC "-//W3C//DTD SVG 1.1//EN" "http://www.w3.org/Graphics/SVG/1.1/DTD/svg11.dtd"><svg width="100%" height="100%" viewBox="0 0 441 441" version="1.1" xmlns="http://www.w3.org/2000/svg" xmlns:xlink="http://www.w3.org/1999/xlink" xml:space="preserve" xmlns:serif="http://www.serif.com/" style="fill-rule:evenodd;clip-rule:evenodd;stroke-linejoin:round;stroke-miterlimit:2;"><g id="icon"><path d="M249.187,266.072c-0,-16.335 2.5,-27.836 7.5,-34.503c3.667,-5.334 15.502,-15.502 35.503,-30.503c34.337,-24.335 51.505,-53.171 51.505,-86.508c-0,-29.335 -11.168,-52.338 -33.503,-69.006c-22.335,-16.668 -52.671,-25.002 -91.008,-25.002c-43.004,0 -75.59,10.001 -97.758,30.003c-22.169,20.002 -33.087,49.504 -32.753,88.508l79.007,-0c0.333,-19.335 4.167,-33.087 11.501,-41.254c7.334,-8.167 19.835,-12.251 37.503,-12.251c28.669,-0 43.004,12.501 43.004,37.503c-0,6.334 -1.834,12.668 -5.501,19.002c-5.334,8.001 -15.668,17.001 -31.003,27.002c-18.668,12.668 -31.002,24.169 -37.003,34.503c-4.667,8.001 -7.834,16.168 -9.501,24.502c-1.666,9.001 -2.5,21.669 -2.5,38.004l75.007,-0Zm6.5,118.51l0,-86.008l-88.007,0l-0,86.008l88.007,0Z" style="fill-rule:nonzero;"/><path d="M129.517,0c-12.755,6.011 -23.959,13.467 -33.658,22.217c-7.251,6.543 -13.703,13.809 -19.305,21.819l-32.518,0l0,352.289l85.479,-0l-0,44.036l-129.515,0l0,-440.361l129.517,0Zm178.463,0l132.381,0l0,440.361l-146.509,0l-0,-44.036l102.473,-0l-0,-352.289l-34.907,0c-7.46,-10.833 -16.938,-20.516 -28.4,-29.07c-7.625,-5.69 -15.967,-10.696 -25.038,-14.966Z"/></g></svg>