<?xml version="1.0" encoding="UTF-8" standalone="no"?>
<!DOCTYPE svg PUBLIC "-//W3C//DTD SVG 1.1//EN" "http://www.w3.org/Graphics/SVG/1.1/DTD/svg11.dtd">
<svg width="100%" height="100%" viewBox="0 0 489 114" version="1.1" xmlns="http://www.w3.org/2000/svg" xmlns:xlink="http://www.w3.org/1999/xlink" xml:space="preserve" xmlns:serif="http://www.serif.com/" style="fill-rule:evenodd;clip-rule:evenodd;stroke-linejoin:round;stroke-miterlimit:2;">
    <g transform="matrix(1,0,0,1,-1113.43,-242)">
        <g transform="matrix(1,0,0,1,882.434,0)">
            <g transform="matrix(1,0,0,1,-882.434,0)">
                <path d="M1597.27,247.768L1558.54,247.768L1558.54,298.457L1597.2,298.457L1597.2,287.707L1570.57,287.707L1570.57,277.811L1594.85,277.811L1594.85,267.702L1570.57,267.702L1570.57,258.518L1597.27,258.518M1602.43,242L1113.43,242L1113.43,356L1602.43,356L1602.43,242ZM1503.38,352.315C1507.21,352.315 1510.3,351.093 1512.65,348.647C1514.98,346.226 1516.14,342.989 1516.14,338.937C1516.14,334.886 1514.98,331.649 1512.65,329.228C1510.3,326.782 1507.21,325.56 1503.38,325.56C1499.54,325.56 1496.45,326.782 1494.1,329.228C1491.75,331.697 1490.57,334.934 1490.57,338.937C1490.57,342.941 1491.75,346.178 1494.1,348.647C1496.45,351.093 1499.54,352.315 1503.38,352.315ZM1178.06,341.85L1184.75,341.85C1184.63,343.696 1183.89,345.195 1182.52,346.346C1181.15,347.496 1179.51,348.072 1177.6,348.072C1175.17,348.072 1173.27,347.257 1171.88,345.626C1170.49,343.996 1169.79,341.766 1169.79,338.937C1169.79,336.108 1170.47,333.879 1171.84,332.248C1173.21,330.618 1175.07,329.803 1177.41,329.803C1179.16,329.803 1180.65,330.235 1181.86,331.098C1183.07,331.961 1183.85,333.148 1184.21,334.658L1189.21,334.658C1188.78,331.853 1187.51,329.635 1185.4,328.005C1183.27,326.375 1180.59,325.56 1177.38,325.56C1173.5,325.56 1170.41,326.77 1168.14,329.192C1165.86,331.661 1164.72,334.91 1164.72,338.937C1164.72,342.965 1165.84,346.202 1168.07,348.647C1170.3,351.093 1173.26,352.315 1176.95,352.315C1180.66,352.315 1183.44,350.997 1185.29,348.359L1185.97,351.74L1189.5,351.74L1189.5,337.93L1178.06,337.93L1178.06,341.85ZM1438.57,351.74L1428.65,326.135L1422.96,326.135L1413.22,351.74L1418.22,351.74L1420.19,346.094L1431.41,346.094L1433.43,351.74L1438.57,351.74ZM1395.99,351.74L1386.07,326.135L1380.38,326.135L1370.64,351.74L1375.64,351.74L1377.62,346.094L1388.84,346.094L1390.85,351.74L1395.99,351.74ZM1266.64,332.824C1266.64,337.523 1266.68,341.659 1266.78,345.231C1265.89,343.553 1264.38,340.987 1262.25,337.535L1255.09,326.135L1249.7,326.135L1249.7,351.74L1254.37,351.74L1254.37,345.051C1254.37,339.465 1254.33,335.329 1254.23,332.644C1255.33,334.73 1256.86,337.295 1258.8,340.34L1265.92,351.74L1271.31,351.74L1271.31,326.135L1266.64,326.135L1266.64,332.824ZM1452.31,326.135L1452.31,330.486L1460.51,330.486L1460.51,351.74L1465.4,351.74L1465.4,330.486L1473.6,330.486L1473.6,326.135L1452.31,326.135ZM1556.6,344.943C1556.55,343.457 1556.25,342.276 1555.68,341.401C1555.12,340.526 1554.19,339.884 1552.89,339.477C1555.75,338.47 1557.17,336.432 1557.17,333.363C1557.17,331.134 1556.38,329.372 1554.8,328.077C1553.22,326.782 1551,326.135 1548.15,326.135L1536.53,326.135L1536.53,351.74L1541.39,351.74L1541.39,341.707L1547.72,341.707C1549.11,341.707 1550.12,342.012 1550.76,342.624C1551.39,343.235 1551.74,344.32 1551.82,345.878L1551.92,348.683C1551.95,350.002 1552.18,351.021 1552.61,351.74L1557.61,351.74C1557.1,350.973 1556.84,349.978 1556.82,348.755L1556.6,344.943ZM1351.98,344.943C1351.93,343.457 1351.62,342.276 1351.06,341.401C1350.5,340.526 1349.57,339.884 1348.27,339.477C1351.12,338.47 1352.55,336.432 1352.55,333.363C1352.55,331.134 1351.76,329.372 1350.18,328.077C1348.6,326.782 1346.38,326.135 1343.52,326.135L1331.91,326.135L1331.91,351.74L1336.76,351.74L1336.76,341.707L1343.09,341.707C1344.48,341.707 1345.5,342.012 1346.13,342.624C1346.77,343.235 1347.12,344.32 1347.19,345.878L1347.3,348.683C1347.32,350.002 1347.55,351.021 1347.98,351.74L1352.98,351.74C1352.48,350.973 1352.21,349.978 1352.19,348.755L1351.98,344.943ZM1311.66,326.135L1292.78,326.135L1292.78,351.74L1311.59,351.74L1311.59,347.389L1297.64,347.389L1297.64,340.7L1310.33,340.7L1310.33,336.528L1297.64,336.528L1297.64,330.486L1311.66,330.486L1311.66,326.135ZM1229.45,326.135L1210.57,326.135L1210.57,351.74L1229.38,351.74L1229.38,347.389L1215.43,347.389L1215.43,340.7L1228.12,340.7L1228.12,336.528L1215.43,336.528L1215.43,330.486L1229.45,330.486L1229.45,326.135ZM1497.77,345.59C1496.35,343.96 1495.64,341.742 1495.64,338.937C1495.64,336.132 1496.35,333.915 1497.77,332.284C1499.18,330.654 1501.05,329.839 1503.38,329.839C1505.73,329.839 1507.61,330.654 1509.02,332.284C1510.41,333.891 1511.11,336.108 1511.11,338.937C1511.11,341.766 1510.41,343.984 1509.02,345.59C1507.61,347.221 1505.73,348.036 1503.38,348.036C1501.05,348.036 1499.18,347.221 1497.77,345.59ZM1380.06,339.189C1381.14,336.312 1382.18,333.387 1383.19,330.414C1384.46,334.13 1385.52,337.055 1386.36,339.189L1387.36,341.958L1379.09,341.958L1380.06,339.189ZM1422.64,339.189C1423.72,336.312 1424.76,333.387 1425.77,330.414C1427.04,334.13 1428.1,337.055 1428.93,339.189L1429.94,341.958L1421.67,341.958L1422.64,339.189ZM1336.76,330.127L1343.06,330.127C1344.5,330.127 1345.6,330.45 1346.38,331.098C1347.16,331.745 1347.55,332.68 1347.55,333.903C1347.55,335.197 1347.17,336.186 1346.42,336.87C1345.66,337.553 1344.6,337.895 1343.24,337.895L1336.76,337.895L1336.76,330.127ZM1541.39,330.127L1547.68,330.127C1549.12,330.127 1550.23,330.45 1551.01,331.098C1551.79,331.745 1552.18,332.68 1552.18,333.903C1552.18,335.197 1551.8,336.186 1551.04,336.87C1550.29,337.553 1549.23,337.895 1547.86,337.895L1541.39,337.895L1541.39,330.127ZM1489.2,299.596C1495.94,299.596 1501.21,298.219 1505.01,295.467C1508.8,292.714 1510.7,288.751 1510.7,283.577C1510.7,279.258 1509.31,275.877 1506.54,273.433C1503.76,270.988 1499.31,269.22 1493.19,268.129L1488.91,267.346C1485.69,266.729 1483.44,265.969 1482.19,265.067C1480.93,264.166 1480.3,262.86 1480.3,261.152C1480.3,257.735 1482.89,256.026 1488.06,256.026C1491.29,256.026 1493.65,256.596 1495.14,257.735C1496.64,258.874 1497.46,260.677 1497.6,263.145L1508.99,263.145C1508.75,257.83 1506.86,253.748 1503.3,250.9C1499.74,248.052 1494.59,246.629 1487.85,246.629C1481.54,246.629 1476.66,247.981 1473.22,250.687C1469.78,253.392 1468.06,257.046 1468.06,261.65C1468.06,270.336 1473.7,275.628 1485,277.526L1489.13,278.309C1492.69,278.974 1495.1,279.721 1496.36,280.552C1497.61,281.382 1498.24,282.652 1498.24,284.361C1498.24,288.252 1495.37,290.198 1489.63,290.198C1485.92,290.198 1483.18,289.581 1481.4,288.347C1479.62,287.113 1478.71,284.93 1478.66,281.798L1466.99,281.798C1467.04,287.398 1468.98,291.765 1472.83,294.897C1476.67,298.029 1482.13,299.596 1489.2,299.596ZM1440.43,299.596C1447.32,299.596 1452.71,297.816 1456.63,294.256C1460.55,290.697 1462.5,285.666 1462.5,279.164L1462.5,247.768L1450.47,247.768L1450.47,279.306C1450.47,282.533 1449.59,284.989 1447.84,286.674C1446.08,288.359 1443.61,289.202 1440.43,289.202C1437.25,289.202 1434.8,288.359 1433.07,286.674C1431.33,284.989 1430.47,282.533 1430.47,279.306L1430.47,247.768L1418.43,247.768L1418.43,279.164C1418.43,285.761 1420.45,290.792 1424.49,294.256C1428.52,297.816 1433.84,299.596 1440.43,299.596ZM1311.5,298.457L1292.42,247.768L1278.12,247.768L1259.46,298.457L1271.78,298.457L1274.7,289.629L1295.77,289.629L1298.76,298.457L1311.5,298.457ZM1212.9,298.457L1193.82,247.768L1179.51,247.768L1160.86,298.457L1173.18,298.457L1176.1,289.629L1197.17,289.629L1200.16,298.457L1212.9,298.457ZM1366.89,247.768L1366.89,298.457L1387.68,298.457C1396.03,298.457 1402.44,296.214 1406.9,291.729C1411.36,287.244 1413.59,281.038 1413.59,273.112C1413.59,265.186 1411.36,258.981 1406.9,254.495C1402.44,250.01 1396.03,247.768 1387.68,247.768L1366.89,247.768ZM1347.74,258.375C1347.74,267.488 1347.84,275.343 1348.03,281.94C1346.32,278.523 1343.68,273.872 1340.12,267.986L1327.74,247.768L1314.78,247.768L1314.78,298.457L1326.24,298.457L1326.24,287.849C1326.24,278.736 1326.15,270.929 1325.96,264.427C1327.43,267.322 1330.06,271.926 1333.86,278.238L1346.25,298.457L1359.2,298.457L1359.2,247.768L1347.74,247.768L1347.74,258.375ZM1510.84,247.768L1510.84,258.518L1526.36,258.518L1526.36,298.457L1538.47,298.457L1538.47,258.518L1554.06,258.518L1554.06,247.768L1510.84,247.768ZM1250.49,271.475C1255,269.339 1257.26,265.756 1257.26,260.725C1257.26,256.833 1255.82,253.7 1252.95,251.327C1250.08,248.954 1245.84,247.768 1240.24,247.768L1216.18,247.768L1216.18,298.457L1240.95,298.457C1246.98,298.457 1251.55,297.163 1254.66,294.577C1257.77,291.99 1259.32,288.371 1259.32,283.72C1259.32,281.062 1258.54,278.606 1256.97,276.351C1255.4,274.097 1253.25,272.471 1250.49,271.475ZM1147.98,270.051C1146.27,275.414 1144.58,281.347 1142.92,287.849C1141.78,283.245 1140.05,277.313 1137.72,270.051L1130.32,247.768L1117.43,247.768L1135.73,298.457L1149.97,298.457L1167.7,247.768L1155.31,247.768L1147.98,270.051ZM1228.21,288.846L1228.21,277.313L1240.24,277.313C1244.7,277.313 1246.93,279.235 1246.93,283.079C1246.93,284.93 1246.35,286.354 1245.19,287.351C1244.03,288.347 1242.38,288.846 1240.24,288.846L1228.21,288.846ZM1378.92,288.276L1378.92,257.948L1387.47,257.948C1391.83,257.948 1395.19,259.218 1397.54,261.757C1399.89,264.296 1401.06,268.081 1401.06,273.112C1401.06,278.143 1399.89,281.928 1397.54,284.467C1395.19,287.007 1391.83,288.276 1387.47,288.276L1378.92,288.276ZM1280.96,270.905C1281.25,270.098 1282.65,265.827 1285.16,258.091C1287.11,264.071 1288.53,268.342 1289.43,270.905L1292.35,279.591L1278.04,279.591L1280.96,270.905ZM1182.36,270.905C1182.65,270.098 1184.05,265.827 1186.56,258.091C1188.51,264.071 1189.93,268.342 1190.83,270.905L1193.75,279.591L1179.44,279.591L1182.36,270.905ZM1239.46,257.379C1241.31,257.379 1242.74,257.853 1243.77,258.803C1244.79,259.752 1245.3,261.033 1245.3,262.647C1245.3,264.356 1244.79,265.708 1243.77,266.705C1242.74,267.702 1241.31,268.2 1239.46,268.2L1228.21,268.2L1228.21,257.379L1239.46,257.379Z" style="fill:white;"/>
            </g>
        </g>
    </g>
</svg>
